<svg xmlns="http://www.w3.org/2000/svg" viewBox="0 0 401.57 396.59"><defs><style>.cls-1{fill:#ad70ca;}.cls-2{fill:#fff;}</style></defs><g id="L"><polygon class="cls-1" points="4.97 0 4.92 176.49 176.96 176.49 176.96 0 4.97 0"/><polygon class="cls-2" points="14.48 9.33 52.75 9.33 52.75 124.03 134.05 124.03 134.05 109.65 67.02 109.65 67.02 9.33 167.33 9.33 167.33 162.3 14.48 162.3 14.48 9.33"/></g><g id="triangle"><polygon class="cls-1" points="229.77 0 229.57 176.49 401.49 176.43 401.49 0 229.77 0"/><polygon class="cls-2" points="239.21 9.29 239.21 148.01 315.59 28.34 392.14 148.01 392.14 9.29 239.21 9.29"/><polygon class="cls-2" points="392.14 162.72 315.67 47.23 239.21 162.72 392.14 162.72"/></g><g id="circle"><polygon class="cls-1" points="0.16 224.44 0 396.43 176.96 396.59 176.96 224.44 0.16 224.44"/><polyline class="cls-2" points="14.48 234.16 14.35 386.83 167.39 386.83 167.33 234.16 10.18 234.16"/><path class="cls-2" d="M572.34,529.47" transform="translate(-562.9 -137.56)"/><path class="cls-2" d="M730.29,529.27" transform="translate(-562.9 -137.56)"/><path class="cls-2" d="M572.34,529.47" transform="translate(-562.9 -137.56)"/><circle class="cls-1" cx="119.06" cy="280.68" r="26.96"/><circle class="cls-2" cx="119.06" cy="280.68" r="17.65"/><circle class="cls-1" cx="119.06" cy="344.31" r="26.96"/><circle class="cls-2" cx="119.06" cy="344.31" r="17.65"/></g><g id="lines"><polygon class="cls-1" points="229.57 224.44 229.59 396.59 401.57 396.59 401.57 224.44 229.57 224.44"/><path class="cls-2" d="M802.11,371.72q0,60.66-.1,121.32a67.09,67.09,0,0,1,56.74-30.12,6.86,6.86,0,0,1,.14,13.29,69,69,0,0,0-29,8.84,70.1,70.1,0,0,0-27.71,29.5l-.12,9.84H955V408.21a64.67,64.67,0,0,1-17.68,16,67.24,67.24,0,0,1-39.48,9.31,5.85,5.85,0,0,1-2.79-4.39,5.54,5.54,0,0,1,2.53-5.05,73,73,0,0,0,25.52-7.18A75.39,75.39,0,0,0,955,386.28V371.72Z" transform="translate(-562.9 -137.56)"/></g></svg>
